<svg xmlns="http://www.w3.org/2000/svg" viewBox="0 0 64 64" role="img" aria-label="S icon">
  <defs>
    <linearGradient id="g" x1="0%" y1="0%" x2="100%" y2="100%">
      <stop offset="0%" stop-color="#0f1012"/>
      <stop offset="100%" stop-color="#0f1012"/>
    </linearGradient>
  </defs>
  <rect width="64" height="64" rx="12" fill="#ffffff"/>
  <path
    d="M44 18c0-5.5-5-8-12.4-8-6.6 0-12.2 2-15.4 6.2l6.6 3.8c1.6-2 4.4-3.3 7.7-3.3 3.2 0 5 .9 5 2.6 0 2.3-2.8 2.8-7.3 3.6-6 1.1-13.2 2.8-13.2 10.4C15 39.8 21 45 30 45c6.7 0 11.5-2.2 14.3-6.1l-6.3-3.8c-1.7 2.3-4.8 3.5-8.1 3.5-3 0-5-.9-5-2.6 0-2.2 2.6-2.9 7-3.7 6.1-1.1 12.9-2.7 12.9-9.8Z"
    fill="url(#g)" />
</svg>
